<?xml version="1.0" encoding="UTF-8"?>
<svg version="1.1" xmlns="http://www.w3.org/2000/svg" width="128" height="128">
<path d="M0 0 C2.59521484 1.06298828 2.59521484 1.06298828 5.2109375 2.5703125 C6.19747314 3.13073242 7.18400879 3.69115234 8.20043945 4.26855469 C9.77184692 5.18749512 9.77184692 5.18749512 11.375 6.125 C13.00731567 7.05940918 13.00731567 7.05940918 14.67260742 8.01269531 C17.54218045 9.66000074 20.40471183 11.31857896 23.26251221 12.98620605 C24.99018013 13.99427027 26.71945146 14.99958484 28.44873047 16.00488281 C32.76438431 18.51411394 37.07908304 21.02470296 41.38232422 23.55517578 C42.32479004 24.10931152 43.26725586 24.66344727 44.23828125 25.234375 C45.06368408 25.72131836 45.88908691 26.20826172 46.73950195 26.70996094 C48.96456633 28.01979046 48.96456633 28.01979046 51.23510742 29.04785156 C53 30 53 30 54 32 C54.10684322 34.0160332 54.14886312 36.03561825 54.16113281 38.05444336 C54.17074036 39.32593735 54.1803479 40.59743134 54.19024658 41.90745544 C54.19509382 43.30158306 54.19937283 44.69571275 54.203125 46.08984375 C54.20887598 47.51469424 54.21463372 48.9395447 54.22039795 50.36439514 C54.23090699 53.35287843 54.23675049 56.34133482 54.24023438 59.32983398 C54.24572333 63.16122424 54.26975987 66.99225986 54.29820633 70.82353878 C54.31681835 73.7669021 54.32203749 76.71017968 54.32357025 79.65359688 C54.32659987 81.0662181 54.33463884 82.47883771 54.34775543 83.89140129 C54.36478627 85.86625025 54.36109517 87.84124519 54.35644531 89.81616211 C54.36191376 91.50255043 54.36191376 91.50255043 54.36749268 93.2230072 C54 96 54 96 52.61863708 97.79876709 C50.52583312 99.35189164 48.36843303 100.61015115 46.08203125 101.86328125 C45.0856665 102.41411377 44.08930176 102.96494629 43.06274414 103.5324707 C41.99016357 104.11988037 40.91758301 104.70729004 39.8125 105.3125 C37.55626272 106.56064181 35.30108296 107.81069686 33.046875 109.0625 C32.4692189 109.38313919 31.89156281 109.70377838 31.29640198 110.03413391 C23.94677542 114.12533041 16.69663059 118.38585366 9.44262695 122.64379883 C8.49347412 123.20091553 7.54432129 123.75803223 6.56640625 124.33203125 C5.73052979 124.82421143 4.89465332 125.3163916 4.03344727 125.82348633 C0.3994403 127.92605321 -1.74801726 128.29643877 -6 128 C-8.59521484 126.93701172 -8.59521484 126.93701172 -11.2109375 125.4296875 C-12.19747314 124.86926758 -13.18400879 124.30884766 -14.20043945 123.73144531 C-15.24804443 123.11881836 -16.29564941 122.50619141 -17.375 121.875 C-18.46321045 121.25206055 -19.5514209 120.62912109 -20.67260742 119.98730469 C-23.54218045 118.33999926 -26.40471183 116.68142104 -29.26251221 115.01379395 C-30.99018013 114.00572973 -32.71945146 113.00041516 -34.44873047 111.99511719 C-38.76438431 109.48588606 -43.07908304 106.97529704 -47.38232422 104.44482422 C-48.79602295 103.61362061 -48.79602295 103.61362061 -50.23828125 102.765625 C-51.06368408 102.27868164 -51.88908691 101.79173828 -52.73950195 101.29003906 C-54.96456633 99.98020954 -54.96456633 99.98020954 -57.23510742 98.95214844 C-59 98 -59 98 -60 96 C-60.10684322 93.9839668 -60.14886312 91.96438175 -60.16113281 89.94555664 C-60.17074036 88.67406265 -60.1803479 87.40256866 -60.19024658 86.09254456 C-60.19509382 84.69841694 -60.19937283 83.30428725 -60.203125 81.91015625 C-60.20887598 80.48530576 -60.21463372 79.0604553 -60.22039795 77.63560486 C-60.23090699 74.64712157 -60.23675049 71.65866518 -60.24023438 68.67016602 C-60.24572333 64.83877576 -60.26975987 61.00774014 -60.29820633 57.17646122 C-60.31681835 54.2330979 -60.32203749 51.28982032 -60.32357025 48.34640312 C-60.32659987 46.9337819 -60.33463884 45.52116229 -60.34775543 44.10859871 C-60.36478627 42.13374975 -60.36109517 40.15875481 -60.35644531 38.18383789 C-60.36009094 37.05957901 -60.36373657 35.93532013 -60.36749268 34.7769928 C-60 32 -60 32 -58.61863708 30.20123291 C-56.52583312 28.64810836 -54.36843303 27.38984885 -52.08203125 26.13671875 C-51.0856665 25.58588623 -50.08930176 25.03505371 -49.06274414 24.4675293 C-47.99016357 23.88011963 -46.91758301 23.29270996 -45.8125 22.6875 C-43.55626272 21.43935819 -41.30108296 20.18930314 -39.046875 18.9375 C-38.4692189 18.61686081 -37.89156281 18.29622162 -37.29640198 17.96586609 C-29.94677542 13.87466959 -22.69663059 9.61414634 -15.44262695 5.35620117 C-14.49347412 4.79908447 -13.54432129 4.24196777 -12.56640625 3.66796875 C-11.73052979 3.17578857 -10.89465332 2.6836084 -10.03344727 2.17651367 C-6.3994403 0.07394679 -4.25198274 -0.29643877 0 0 Z M-9.06640625 11.7109375 C-10.62016968 12.58250488 -10.62016968 12.58250488 -12.20532227 13.47167969 C-13.31319092 14.09977539 -14.42105957 14.72787109 -15.5625 15.375 C-17.24460571 16.32487793 -17.24460571 16.32487793 -18.96069336 17.29394531 C-22.3105191 19.19006405 -25.65575309 21.09406267 -29 23 C-29.9384375 23.53206055 -30.876875 24.06412109 -31.84375 24.61230469 C-34.25536427 25.98245753 -36.66037354 27.36329757 -39.0625 28.75 C-39.77543213 29.15524902 -40.48836426 29.56049805 -41.22290039 29.97802734 C-42.8499922 30.92824076 -44.43156004 31.95581163 -46 33 C-46 33.66 -46 34.32 -46 35 C-45.26064209 35.40726318 -44.52128418 35.81452637 -43.75952148 36.23413086 C-40.94357307 37.78700976 -38.12895446 39.34226593 -35.31524658 40.89920044 C-34.06679619 41.58953081 -32.81789673 42.2790497 -31.56854248 42.96774292 C-19.50337007 49.62126977 -19.50337007 49.62126977 -14.04296875 53.0703125 C-13.0221521 53.71432007 -13.0221521 53.71432007 -11.98071289 54.37133789 C-10.24986841 55.48234831 -8.5344213 56.61724545 -6.8203125 57.75390625 C-4.12260731 59.31591279 -4.12260731 59.31591279 -1.69702148 58.27978516 C1.25920817 56.87700106 4.11430592 55.36292667 6.97265625 53.76953125 C8.12056641 53.13080078 9.26847656 52.49207031 10.45117188 51.83398438 C11.04599365 51.50100342 11.64081543 51.16802246 12.25366211 50.82495117 C14.03127959 49.82997483 15.81128165 48.83938891 17.59179688 47.84960938 C21.06907295 45.91364246 24.53482609 43.95755035 28 42 C28.58755066 41.67223572 29.17510132 41.34447144 29.78045654 41.0067749 C31.48137379 40.05728766 33.1763641 39.09720659 34.87109375 38.13671875 C35.85907959 37.58072998 36.84706543 37.02474121 37.86499023 36.4519043 C38.56954346 35.97277588 39.27409668 35.49364746 40 35 C40 34.34 40 33.68 40 33 C39.2251123 32.55720703 38.45022461 32.11441406 37.65185547 31.65820312 C23.18359375 23.390625 23.18359375 23.390625 21.33966064 22.33666992 C20.10589066 21.63184483 18.87179914 20.92758229 17.63739014 20.22387695 C14.42265761 18.3902537 11.21475581 16.54600338 8.01660156 14.68359375 C7.37530304 14.3119812 6.73400452 13.94036865 6.07327271 13.55749512 C4.84587239 12.8459113 3.62041636 12.13096035 2.39718628 11.41223145 C-2.71982531 8.45386958 -3.99676541 8.8565982 -9.06640625 11.7109375 Z M-51 42 C-55.08961701 69.72289279 -55.08961701 69.72289279 -48.95068359 95.56494141 C-43.60926159 100.6203754 -37.20189668 102.8350929 -30.25097656 104.91064453 C-25.07151657 106.64620705 -20.67069535 109.49178795 -16.0625 112.375 C-11.70473575 115.41810452 -11.70473575 115.41810452 -7 117 C-7 100.17 -7 83.34 -7 66 C-11.145625 63.710625 -15.29125 61.42125 -19.5625 59.0625 C-28.0910435 54.34353645 -36.59113399 49.60567515 -44.85961914 44.43969727 C-47.71322326 42.55636079 -47.71322326 42.55636079 -51 42 Z M38.1875 44.7109375 C36.69476563 45.59072266 36.69476563 45.59072266 35.171875 46.48828125 C34.12515625 47.11089844 33.0784375 47.73351563 32 48.375 C21.76432458 54.44405885 11.4108821 60.21617661 1 66 C1 82.83 1 99.66 1 117 C10.32397544 112.0272131 19.53341376 107.04483187 28.625 101.6875 C29.66011719 101.08099609 30.69523437 100.47449219 31.76171875 99.84960938 C34.51051891 98.23757108 37.25758407 96.62287367 40 95 C40.92240479 94.67322266 41.84480957 94.34644531 42.79516602 94.00976562 C45.52798647 91.5187261 45.38149264 90.67654645 45.56762695 87.06958008 C45.56683445 84.96939741 45.53853393 82.86911277 45.48828125 80.76953125 C45.47766914 79.11119514 45.47766914 79.11119514 45.46684265 77.4193573 C45.43882049 73.88305419 45.37606379 70.34832574 45.3125 66.8125 C45.28742742 64.41734055 45.26461245 62.02215632 45.24414062 59.62695312 C45.18896818 53.75076346 45.10526308 47.8754942 45 42 C42.15893775 42 40.62690663 43.26220498 38.1875 44.7109375 Z " fill="#FFFFFF" transform="translate(67,0)"/>
</svg>
