<?xml version="1.0" encoding="UTF-8"?>
<svg version="1.1" xmlns="http://www.w3.org/2000/svg" width="64" height="64">
<path d="M0 0 C2 1.375 2 1.375 3 3 C3 3.66 3 4.32 3 5 C1.71416016 5.12955078 1.71416016 5.12955078 0.40234375 5.26171875 C-9.33469375 6.39628428 -9.33469375 6.39628428 -17 12 C-21.64136754 17.98930961 -21.89361094 24.66622742 -21 32 C-20.23356591 34.35623737 -19.38417169 35.92374247 -18 38 C-17.05125 37.34 -16.1025 36.68 -15.125 36 C-12 34 -12 34 -10 34 C-10.495 33.38125 -10.99 32.7625 -11.5 32.125 C-13.61487547 27.71900943 -13.84434085 23.80506699 -13 19 C-11.30904867 15.88113422 -9.21962291 13.60981146 -6 12 C-1.90842645 11.48487383 2.23589546 11.05632731 5.95703125 13.046875 C8.09315687 14.81398622 9.75449171 16.50898341 11 19 C11.52274617 24.67983816 11.71435943 29.35705072 8 34 C8.763125 34.28875 9.52625 34.5775 10.3125 34.875 C13 36 13 36 16 38 C19.38495108 32.55464391 19.67373505 27.32278971 20 21 C21.65 20.67 23.3 20.34 25 20 C25.62312862 28.83457905 25.28204639 35.65569369 20 43 C15.24773264 48.32795771 9.91283881 51.57054208 2.796875 52.3515625 C-6.17750169 52.7206386 -13.03169642 51.44088282 -19.83984375 45.35546875 C-26.60751022 38.02520898 -27.58149052 31.40851523 -27.33984375 21.59765625 C-26.68326857 14.6470156 -24.20930389 10.89726948 -19.1875 6.1875 C-13.13718556 1.28909386 -7.8460606 -0.78460606 0 0 Z M-6.375 18.625 C-8.48706506 21.71186432 -8.61195145 23.3282913 -8 27 C-6.5 29.5 -6.5 29.5 -4 31 C-0.3282913 31.61195145 1.28813568 31.48706506 4.375 29.375 C6.48706506 26.28813568 6.61195145 24.6717087 6 21 C4.5 18.5 4.5 18.5 2 17 C-1.6717087 16.38804855 -3.28813568 16.51293494 -6.375 18.625 Z M-12 41 C-12 42.32 -12 43.64 -12 45 C-6.12153064 47.70733176 0.87542784 48.31894821 7.11328125 46.32421875 C8.89840792 45.46670946 8.89840792 45.46670946 11 44 C10.03441599 41.45436943 9.06131195 40.05364796 7 38.25 C0.1889454 35.41206058 -6.58867015 35.87347698 -12 41 Z " fill="#FFFCFC" transform="translate(33,6)"/>
<path d="M0 0 C1.32 0 2.64 0 4 0 C4 1.98 4 3.96 4 6 C5.98 6 7.96 6 10 6 C10 7.32 10 8.64 10 10 C8.02 10 6.04 10 4 10 C4 11.98 4 13.96 4 16 C2.68 16 1.36 16 0 16 C0 14.02 0 12.04 0 10 C-1.98 10 -3.96 10 -6 10 C-6 8.68 -6 7.36 -6 6 C-4.02 6 -2.04 6 0 6 C0 4.02 0 2.04 0 0 Z " fill="#FFFCFC" transform="translate(48,6)"/>
</svg>
